# xmcd CD database file
#
# Track frame offsets:
#	150
#	11546
#	37248
#	59612
#	91772
#	118146
#	144056
#	165663
#	195105
#	252299
#	270335
#
# Disc length: 4297 seconds
#
# Revision: 1
# Processed by: cddbd v1.5.2PL0 Copyright (c) Steve Scherf et al.
# Submitted via: CDex 1.51
#
DISCID=8910c70b
DTITLE=STEVIE RAY VAUGHAN - The Fire Meets The Fury(The Radio Broadcasts 1989)
DYEAR=2012
DGENRE=Blues Rock
TTITLE0=The House Is Rockin'
TTITLE1=Tightrope
TTITLE2=Look At Little Sister
TTITLE3=Texas Flood
TTITLE4=Leave My Girl Alone
TTITLE5=Wall Of Denial
TTITLE6=Superstition
TTITLE7=Cold Shot
TTITLE8=Life Without You
TTITLE9=Crossfire
TTITLE10=Voodoo Chile
EXTD=YEAR: 2012
EXTT0=
EXTT1=
EXTT2=
EXTT3=
EXTT4=
EXTT5=
EXTT6=
EXTT7=
EXTT8=
EXTT9=
EXTT10=
PLAYORDER=
